<?xml version="1.0" encoding="utf-8"?>
<!-- Generator: Adobe Illustrator 26.0.1, SVG Export Plug-In . SVG Version: 6.00 Build 0)  -->
<svg version="1.1" id="Layer_1" xmlns="http://www.w3.org/2000/svg" xmlns:xlink="http://www.w3.org/1999/xlink" x="0px" y="0px"
	 viewBox="0 0 207 205.1" style="enable-background:new 0 0 207 205.1;" xml:space="preserve">
<style type="text/css">
	.st0{fill:url(#SVGID_1_);stroke:#74E5FF;stroke-width:2;stroke-miterlimit:10;}
	.st1{fill:url(#SVGID_00000140726046066091166130000017352322723678292902_);}
	.st2{fill:url(#SVGID_00000019680204146028967160000004701140331813793670_);}
	.st3{fill:url(#SVGID_00000151526428713633696420000004746044551103733653_);}
	.st4{fill:url(#SVGID_00000137128769157488748810000000472414409856922256_);}
	.st5{fill:#0026A0;}
	.st6{fill:#00228E;}
	.st7{fill:#0250AD;}
	.st8{fill:#150263;}
	.st9{fill:#0090D8;}
	.st10{fill:#4E93F9;}
	.st11{fill:url(#SVGID_00000013192275304333118330000004998353322282114699_);}
</style>
<linearGradient id="SVGID_1_" gradientUnits="userSpaceOnUse" x1="43.7554" y1="53.6091" x2="116.0513" y2="178.8293" gradientTransform="matrix(1 0 0 -1 0 208)">
	<stop  offset="0" style="stop-color:#160010"/>
	<stop  offset="0.12" style="stop-color:#13011D"/>
	<stop  offset="0.68" style="stop-color:#050754"/>
	<stop  offset="0.95" style="stop-color:#00096A"/>
</linearGradient>
<path class="st0" d="M139.7,49c-6.3-8.9-15-15.9-26.2-20.8s-23.8-7.4-37.8-7.3H48V41H38v19H24.6v83.3h52.2c13.7,0,26.2-2.6,37.3-7.6
	c11.2-5,19.8-12,25.9-20.8c6.1-8.8,9.3-19.4,9.2-30.2v-5.6C149.3,68.3,146,57.8,139.7,49z M110.2,84.7c0,11.9-2.9,20.8-8.8,26.9
	c-5.9,6-14.3,9-25.3,9H62.8V43.7h12.9c11.3,0,19.8,3,25.7,9c5.9,6,8.8,14.9,8.8,26.8L110.2,84.7z"/>
<g>
	
		<linearGradient id="SVGID_00000114032123029535064120000002038495861391165596_" gradientUnits="userSpaceOnUse" x1="149.72" y1="-11.1384" x2="194.16" y2="104.6416" gradientTransform="matrix(1 0 0 -1 0 208)">
		<stop  offset="3.000000e-02" style="stop-color:#00B2A4"/>
		<stop  offset="0.53" style="stop-color:#03BEB2"/>
		<stop  offset="1" style="stop-color:#04C4B9"/>
	</linearGradient>
	<path style="fill:url(#SVGID_00000114032123029535064120000002038495861391165596_);" d="M206.4,180.2l-23.2,23.2l-30.6-28.8
		c-5.5-6-9.2-13.4-10.7-21.4c-0.7-4.2-0.9-8.5-0.7-12.8c0.2-5.9,1.4-11.7,3.6-17.1c1.5-3.6,3.4-6.9,5.7-10l18.3-18.3
		c-0.4,1.3-0.8,2.7-1.2,4.1c-0.8,3-1.5,5.8-2.1,8.6c-1.2,7.3-0.9,14.8,0.7,22.1c0.1,0.3,0.2,0.7,0.2,1.1c1.9,7.9,5.5,15.3,10.4,21.8
		l0.5,0.5L206.4,180.2z"/>
	
		<linearGradient id="SVGID_00000129174014800833261020000012061195062798276494_" gradientUnits="userSpaceOnUse" x1="164.7397" y1="90.29" x2="204.2812" y2="90.29" gradientTransform="matrix(1 0 0 -1 0 208)">
		<stop  offset="0" style="stop-color:#038679"/>
		<stop  offset="1" style="stop-color:#00B3A7"/>
	</linearGradient>
	<path style="fill:url(#SVGID_00000129174014800833261020000012061195062798276494_);" d="M204.3,105.8c-6.4,5.7-12.2,12-17.4,18.8
		c-2.4,3.2-4.5,6.3-6.4,9.3c-1.2,2.5-2.2,5.1-2.9,7.8c-0.3,1.2-0.6,2.4-0.7,3.6c0,2.5,0.1,5.1,0.5,7.6l-0.5-0.5
		c-5-6.5-8.5-13.9-10.5-21.8c-0.1-0.4-0.2-0.7-0.2-1c-1.6-7.3-1.9-14.8-0.7-22.1c0.6-2.7,1.3-5.6,2.1-8.6c0.4-1.4,0.8-2.8,1.2-4.1
		l1.7-1.7l10.6-10.6C188.8,90.3,196.5,98,204.3,105.8z"/>
	
		<linearGradient id="SVGID_00000125583734184869725570000017895667528427768470_" gradientUnits="userSpaceOnUse" x1="123.8245" y1="-14.6847" x2="109.0645" y2="125.7153" gradientTransform="matrix(1 0 0 -1 0 208)">
		<stop  offset="0.27" style="stop-color:#00C5E6"/>
		<stop  offset="0.61" style="stop-color:#00B8E5"/>
		<stop  offset="0.95" style="stop-color:#00B1E4"/>
	</linearGradient>
	<path style="fill:url(#SVGID_00000125583734184869725570000017895667528427768470_);" d="M142.5,166.4c-1.4,2.9-3.1,5.6-5,8.1
		l-18.6,18.1c0.4-1.3,0.9-2.7,1.3-4.1c0.9-2.9,1.6-5.8,2.3-8.5c1.3-7.3,1.1-14.8-0.4-22.1c-0.1-0.3-0.1-0.7-0.2-1.1
		c-1.8-7.9-5.3-15.4-10.1-21.9l-0.5-0.5l-28.7-27.7L106,83.9l30.2,29.3c2.2,2.4,4,5.1,5.6,7.9c0.2,0.3,0.4,0.7,0.5,1
		c-0.4,0.8-0.7,1.6-1.1,2.5c-2.2,5.4-3.4,11.2-3.6,17.1c-0.2,4.3,0,8.6,0.7,12.9C139.2,158.7,140.6,162.7,142.5,166.4z"/>
	
		<linearGradient id="SVGID_00000040532792404891583130000011824037004295387044_" gradientUnits="userSpaceOnUse" x1="376.4888" y1="603.6813" x2="392.3105" y2="671.1179" gradientTransform="matrix(-0.9999 -1.378755e-02 -1.378755e-02 0.9999 499.1333 -463.1966)">
		<stop  offset="0.25" style="stop-color:#0272B9"/>
		<stop  offset="0.33" style="stop-color:#027EC0"/>
		<stop  offset="0.54" style="stop-color:#019AD2"/>
		<stop  offset="0.72" style="stop-color:#00ABDC"/>
		<stop  offset="0.86" style="stop-color:#00B1E0"/>
	</linearGradient>
	<path style="fill:url(#SVGID_00000040532792404891583130000011824037004295387044_);" d="M83.6,181.2c6.5-5.6,12.4-11.8,17.7-18.6
		c2.4-3.1,4.6-6.2,6.5-9.2c1.3-2.5,2.3-5.1,3-7.8c0.3-1.2,0.6-2.4,0.8-3.6c0.1-2.5-0.1-5.1-0.4-7.6l0.5,0.5
		c4.8,6.5,8.3,14,10.1,21.9c0.1,0.4,0.2,0.7,0.2,1.1c1.5,7.3,1.7,14.8,0.4,22.1c-0.6,2.7-1.4,5.6-2.3,8.5c-0.4,1.4-0.8,2.7-1.3,4.1
		l-1.7,1.7l-10.7,10.4L83.6,181.2z"/>
</g>
<rect x="11" y="18" class="st5" width="12" height="12"/>
<rect x="20" y="41" class="st6" width="15" height="15"/>
<rect x="28" y="21" class="st7" width="17" height="17"/>
<rect x="4" y="34" class="st8" width="12" height="12"/>
<rect x="19" class="st9" width="13" height="13"/>
<rect y="2" class="st10" width="12" height="12"/>
<radialGradient id="SVGID_00000038410330701411140290000001026652089054948542_" cx="144.4762" cy="142" r="25.6327" gradientTransform="matrix(1 0 0 -1 0 208)" gradientUnits="userSpaceOnUse">
	<stop  offset="0" style="stop-color:#00B3E4"/>
	<stop  offset="1" style="stop-color:#029C8F"/>
</radialGradient>
<ellipse style="fill:url(#SVGID_00000038410330701411140290000001026652089054948542_);" cx="144.5" cy="66" rx="25.3" ry="26"/>
</svg>
